<svg width="10" height="11" viewBox="0 0 10 14" fill="none" xmlns="http://www.w3.org/2000/svg">
<path d="M4.43526 10.7749C4.74762 11.075 5.25488 11.075 5.56723 10.7749L8.76573 7.7012C9.07809 7.40103 9.07809 6.91357 8.76573 6.6134C8.45338 6.31324 7.94612 6.31324 7.63377 6.6134L5.79963 8.37597L5.79963 0.76842C5.79963 0.343387 5.44229 -1.55512e-07 5 -1.74846e-07C4.55771 -1.94179e-07 4.20038 0.343387 4.20038 0.76842L4.20037 8.37597L2.36623 6.6134C2.05388 6.31324 1.54662 6.31324 1.23427 6.6134C0.921911 6.91357 0.921911 7.40103 1.23426 7.7012L4.43277 10.7749L4.43526 10.7749Z" fill="#584022"/>
<path d="M1 13H9" stroke="#584022" stroke-width="1.75" stroke-linecap="round"/>
</svg>
