<svg width="13" height="13" viewBox="0 0 13 13" fill="none" xmlns="http://www.w3.org/2000/svg">
<path d="M7.37344 0.502734C7.50039 0.198047 7.79746 0 8.125 0H12.1875C12.6369 0 13 0.363086 13 0.8125V4.875C13 5.20254 12.802 5.49961 12.4973 5.62656C12.1926 5.75352 11.8447 5.68242 11.6111 5.45137L10.1562 3.99395L6.26133 7.88633C5.94395 8.20371 5.42852 8.20371 5.11113 7.88633C4.79375 7.56895 4.79375 7.05352 5.11113 6.73613L9.00605 2.84375L7.55117 1.38633C7.31758 1.15273 7.24902 0.804883 7.37598 0.500195L7.37344 0.502734ZM0 4.46875C0 3.34648 0.908984 2.4375 2.03125 2.4375H4.0625C4.51191 2.4375 4.875 2.80059 4.875 3.25C4.875 3.69941 4.51191 4.0625 4.0625 4.0625H2.03125C1.80781 4.0625 1.625 4.24531 1.625 4.46875V10.9688C1.625 11.1922 1.80781 11.375 2.03125 11.375H8.53125C8.75469 11.375 8.9375 11.1922 8.9375 10.9688V8.9375C8.9375 8.48809 9.30059 8.125 9.75 8.125C10.1994 8.125 10.5625 8.48809 10.5625 8.9375V10.9688C10.5625 12.091 9.65352 13 8.53125 13H2.03125C0.908984 13 0 12.091 0 10.9688V4.46875Z" fill="black"/>
</svg>
